HIERARCHY
ROOT Hips
{
 OFFSET 0.000000 0.000000 0.000000
 CHANNELS 6 Xposition Yposition Zposition Yrotation Xrotation Zrotation
 JOINT Chest
 {
  OFFSET 0.000000 9.585900 0.002600
  CHANNELS 3 Yrotation Xrotation Zrotation
  JOINT Chest2
  {
   OFFSET 0.000000 9.601200 -0.005300
   CHANNELS 3 Yrotation Xrotation Zrotation
   JOINT Chest3
   {
    OFFSET 0.000000 9.561800 0.000000
    CHANNELS 3 Yrotation Xrotation Zrotation
    JOINT Chest4
    {
     OFFSET 0.000000 9.552100 0.000000
     CHANNELS 3 Yrotation Xrotation Zrotation
     JOINT Neck
     {
      OFFSET 0.000000 14.453000 0.000000
      CHANNELS 3 Yrotation Xrotation Zrotation
      JOINT Head
      {
       OFFSET 0.000000 8.936500 -0.011300
       CHANNELS 3 Yrotation Xrotation Zrotation
       End Site
       {
        OFFSET 0.000000 17.073600 -0.006000
       }
      }
     }
     JOINT RightCollar
     {
      OFFSET -2.921100 9.558500 0.000000
      CHANNELS 3 Yrotation Xrotation Zrotation
      JOINT RightShoulder
      {
       OFFSET -13.519700 0.000000 0.000000
       CHANNELS 3 Yrotation Xrotation Zrotation
       JOINT RightElbow
       {
        OFFSET 0.000000 -29.696600 0.000000
        CHANNELS 3 Yrotation Xrotation Zrotation
        JOINT RightWrist
        {
         OFFSET 0.000000 -24.004700 0.000000
         CHANNELS 3 Yrotation Xrotation Zrotation
         End Site
         {
          OFFSET 0.000000 -17.728500 0.000000
         }
        }
       }
      }
     }
     JOINT LeftCollar
     {
      OFFSET 2.921100 9.558500 0.000000
      CHANNELS 3 Yrotation Xrotation Zrotation
      JOINT LeftShoulder
      {
       OFFSET 13.519700 0.000000 0.000000
       CHANNELS 3 Yrotation Xrotation Zrotation
       JOINT LeftElbow
       {
        OFFSET 0.000000 -29.696600 0.000000
        CHANNELS 3 Yrotation Xrotation Zrotation
        JOINT LeftWrist
        {
         OFFSET 0.000000 -24.004700 0.000000
         CHANNELS 3 Yrotation Xrotation Zrotation
         End Site
         {
          OFFSET 0.000000 -17.728500 0.000000
         }
        }
       }
      }
     }
    }
   }
  }
 }
 JOINT RightHip
 {
  OFFSET -7.771700 -0.012900 -0.001300
  CHANNELS 3 Yrotation Xrotation Zrotation
  JOINT RightKnee
  {
   OFFSET 0.000000 -40.869800 0.001200
   CHANNELS 3 Yrotation Xrotation Zrotation
   JOINT RightAnkle
   {
    OFFSET 0.000000 -39.717900 0.002100
    CHANNELS 3 Yrotation Xrotation Zrotation
    JOINT RightToe
    {
     OFFSET 0.000000 -4.965400 11.033500
     CHANNELS 3 Yrotation Xrotation Zrotation
     End Site
     {
      OFFSET 0.000000 -1.423100 5.872300
     }
    }
   }
  }
 }
 JOINT LeftHip
 {
  OFFSET 7.771700 -0.012900 -0.001300
  CHANNELS 3 Yrotation Xrotation Zrotation
  JOINT LeftKnee
  {
   OFFSET 0.000000 -40.869800 0.001200
   CHANNELS 3 Yrotation Xrotation Zrotation
   JOINT LeftAnkle
   {
    OFFSET 0.000000 -39.717900 0.002100
    CHANNELS 3 Yrotation Xrotation Zrotation
    JOINT LeftToe
    {
     OFFSET 0.000000 -4.965400 11.033500
     CHANNELS 3 Yrotation Xrotation Zrotation
     End Site
     {
      OFFSET 0.000000 -1.423100 5.872300
     }
    }
   }
  }
 }
}
MOTION
Frames: 11
Frame Time: 0.008333
0.000000 85.388000 0.000000 0.000000 -5.767877 0.000000 0.000000 11.653817 0.000000 0.000000 -5.885947 0.000000 0.000000 -0.000000 0.000000 0.000000 -0.000000 0.000000 0.000000 12.528835 0.000000 0.000000 0.711642 0.000000 0.000000 -0.000000 0.000000 0.000000 0.000000 -90.000000 0.000000 -2.309062 0.000000 0.000000 2.309062 0.000000 0.000000 -0.000000 0.000000 0.000000 -0.000000 90.000000 0.000000 -2.309062 0.000000 0.000000 2.309062 0.000000 0.000000 8.520406 0.000000 0.000000 1.905762 0.000000 -0.000000 -4.658285 0.000000 0.000000 -0.000000 0.000000 0.000000 8.520406 0.000000 0.000000 1.905762 0.000000 -0.000000 -4.658285 0.000000 0.000000 -0.000000 0.000000
-124.682593 62.211408 19.925205 176.539332 -55.767560 -0.013705 4.722608 26.013776 2.213203 0.633168 4.399912 0.335486 1.012634 6.829116 0.627671 3.513120 21.247390 2.385375 3.893575 19.040584 2.035269 6.487986 -0.445259 2.504442 4.986940 4.773114 4.673337 9.909630 -26.396044 -29.723905 -53.065384 -53.402665 94.782313 -1.315633 -1.021496 7.234877 -7.225665 3.529549 3.160805 1.600136 -16.654121 18.742788 61.440178 -79.730692 -84.391248 8.124750 -1.173799 -13.005154 3.489211 -10.907294 -6.659933 -2.220997 58.005918 -6.283082 -0.091981 -7.101372 9.214793 0.370962 -0.806743 0.178263 -4.780991 -7.677828 -0.171965 32.935968 73.095732 35.716223 0.904384 -10.318941 -6.790716 0.394479 0.888915 0.179010
-124.682913 62.212639 19.924419 176.536244 -55.729452 -0.015418 4.737688 26.062087 2.181582 0.633701 4.412702 0.333104 1.019897 6.867809 0.607211 3.524265 21.236308 2.370882 3.805666 19.051418 2.067470 6.316903 -0.427337 2.591201 4.916477 4.865695 4.643552 9.341140 -25.946979 -29.357161 -54.102416 -53.697850 96.025595 -1.058100 -0.801533 7.327635 -7.219960 3.488940 3.119639 1.593475 -16.228869 18.702339 65.568800 -79.939611 -88.854326 8.155833 -1.071027 -12.921389 3.499984 -10.943911 -6.649592 -2.225888 58.008263 -6.294233 -0.096839 -7.102702 9.218156 0.376448 -0.810360 0.179867 -4.776400 -7.714231 -0.164850 32.935545 73.094238 35.718450 0.906667 -10.316743 -6.790009 0.391897 0.889042 0.177984
-124.685710 62.211500 19.925028 176.532061 -55.664763 -0.003788 4.743233 26.090833 2.136886 0.633357 4.421429 0.326323 1.023763 6.878720 0.598669 3.529985 21.251168 2.343301 3.720326 19.058108 2.098892 6.150753 -0.417007 2.675576 4.856625 4.940537 4.621207 8.762839 -25.483753 -28.986182 -55.148932 -54.006321 97.269624 -0.802914 -0.572690 7.446023 -7.207274 3.449250 3.087802 1.576350 -15.799929 18.650445 69.585202 -80.030465 -93.197464 8.191848 -1.000000 -12.837336 3.525054 -11.008978 -6.653516 -2.230072 58.016012 -6.300367 -0.118588 -7.106467 9.227018 0.380762 -0.810218 0.183257 -4.771071 -7.779370 -0.166980 32.937837 73.089456 35.714711 0.913577 -10.316849 -6.779416 0.379979 0.894280 0.173244
-124.687040 62.210878 19.925264 176.530880 -55.595621 -0.004993 4.750224 26.187219 2.074257 0.635483 4.355731 0.347480 1.026485 6.886719 0.589755 3.532840 21.262667 2.314563 3.637930 19.064857 2.129111 5.990474 -0.406325 2.756866 4.810035 5.000157 4.606017 8.170623 -24.999032 -28.607412 -56.198928 -54.340566 98.514629 -0.562795 -0.349116 7.580077 -7.186637 3.426393 3.068562 1.562630 -15.376864 18.582700 73.323028 -79.993761 -97.271357 8.224254 -0.971991 -12.769340 3.542253 -11.077932 -6.652230 -2.244146 58.020264 -6.307306 -0.124370 -7.110011 9.227061 0.383069 -0.810032 0.187401 -4.768825 -7.847171 -0.156941 32.927305 73.088330 35.703313 0.914115 -10.320311 -6.776801 0.379370 0.901786 0.172973
-124.688321 62.204578 19.929234 176.523161 -55.478883 -0.004048 4.753194 26.188907 2.028815 0.638717 4.311068 0.358236 1.024917 6.916925 0.573314 3.531567 21.271628 2.285531 3.559065 19.071964 2.156114 5.837687 -0.394555 2.831067 4.773324 5.054242 4.591323 7.570101 -24.500095 -28.220592 -57.251286 -54.701016 99.764036 -0.344326 -0.140372 7.701072 -7.160213 3.420782 3.053976 1.559746 -14.961663 18.503870 76.733151 -79.830091 -101.035775 8.236694 -0.966575 -12.721177 3.562868 -11.200089 -6.648268 -2.248829 58.026716 -6.311145 -0.135867 -7.117961 9.230478 0.384663 -0.803722 0.189557 -4.761864 -7.964223 -0.138138 32.912939 73.089301 35.690677 0.912048 -10.343939 -6.777517 0.384462 0.928943 0.175727
-124.689899 62.203980 19.929002 176.523386 -55.398808 -0.007821 4.748355 26.202252 1.995101 0.645322 4.241891 0.376526 1.022286 6.943878 0.561422 3.529646 21.275685 2.271203 3.458553 19.132260 2.157960 5.692646 -0.383857 2.892911 4.717631 5.170772 4.550695 6.964393 -24.005231 -27.829914 -58.307397 -55.070102 101.026025 -0.136121 0.055031 7.780061 -7.149800 3.478713 3.008975 1.561161 -14.555944 18.411814 79.775930 -79.563990 -104.446539 8.220605 -0.963775 -12.691770 3.569235 -11.279948 -6.645354 -2.228009 58.030097 -6.297924 -0.147647 -7.121682 9.235008 0.380965 -0.805429 0.188188 -4.760661 -8.043968 -0.126055 32.928916 73.086002 35.703647 0.908697 -10.345538 -6.774794 0.380020 0.932982 0.175842
-124.694605 62.208042 19.924997 176.532683 -55.349306 -0.000441 4.725671 26.246263 1.943456 0.639165 4.316863 0.347794 1.041892 6.827311 0.592854 3.494603 21.355249 2.219056 3.399286 19.109172 2.183602 5.557595 -0.374860 2.942102 4.690705 5.222946 4.524368 6.347290 -23.529826 -27.435941 -59.367602 -55.436916 102.305512 0.073510 0.239022 7.811249 -7.105327 3.472586 3.002805 1.555538 -14.159664 18.303292 82.434515 -79.241641 -107.474559 8.188970 -0.961093 -12.671849 3.573682 -11.323946 -6.661519 -2.225380 58.032710 -6.296139 -0.160106 -7.122470 9.232460 0.398563 -0.813373 0.192359 -4.761514 -8.091925 -0.134512 32.946269 73.072203 35.704693 0.911406 -10.323009 -6.751235 0.359991 0.919882 0.165025
-124.695116 62.201276 19.928267 176.535072 -55.219213 -0.016471 4.713172 26.207811 1.914403 0.634380 4.340723 0.336132 1.029380 6.876682 0.567306 3.496728 21.311998 2.203830 3.346399 19.087781 2.202364 5.433905 -0.367960 2.982600 4.667158 5.293357 4.488951 5.719968 -23.074147 -27.043975 -60.446346 -55.803408 103.609065 0.276979 0.412472 7.805046 -7.056801 3.473306 2.990191 1.542085 -13.773063 18.181257 84.744297 -78.903414 -110.152717 8.157005 -0.961663 -12.643919 3.580569 -11.461833 -6.648600 -2.233643 58.040091 -6.304138 -0.171993 -7.124753 9.228949 0.403167 -0.809704 0.199191 -4.758640 -8.223725 -0.099183 32.933596 73.075326 35.690266 0.900912 -10.343859 -6.750397 0.370047 0.943996 0.170999
-124.696118 62.200868 19.926472 176.526933 -55.134547 -0.020555 4.704688 26.217344 1.884535 0.632934 4.341165 0.332181 1.020495 6.901116 0.552017 3.495430 21.291040 2.189720 3.284524 19.090268 2.209996 5.318323 -0.363856 3.015926 4.635666 5.387662 4.446887 5.093682 -22.621006 -26.666188 -61.563693 -56.163437 104.942205 0.468742 0.580445 7.768324 -7.022733 3.489719 2.962443 1.535299 -13.393075 18.050900 86.780566 -78.569895 -112.565123 8.129646 -0.962253 -12.591389 3.599842 -11.550924 -6.633862 -2.262119 58.048355 -6.331571 -0.177810 -7.112731 9.233816 0.415705 -0.825661 0.201987 -4.754989 -8.307227 -0.076546 32.928646 73.076764 35.683017 0.895429 -10.338379 -6.756231 0.377724 0.942003 0.177061
-124.696756 62.196683 19.926555 176.543586 -55.022753 -0.049206 4.690098 26.152866 1.873805 0.621920 4.389452 0.315791 1.018144 6.902121 0.546410 3.485526 21.294086 2.170690 3.224835 19.091497 2.214346 5.207745 -0.361947 3.042595 4.609539 5.466161 4.408986 4.479333 -22.152903 -26.310056 -62.720680 -56.503093 106.295272 0.649375 0.747217 7.710373 -6.996170 3.493094 2.929922 1.545986 -13.009530 17.921593 88.653084 -78.242839 -114.822845 8.109702 -0.951434 -12.507228 3.592602 -11.666506 -6.621853 -2.249450 58.055134 -6.324047 -0.185857 -7.117500 9.236020 0.415643 -0.825692 0.200325 -4.758950 -8.423031 -0.031757 32.894182 73.091372 35.642440 0.865126 -10.347386 -6.751509 0.402296 0.949371 0.185669
